<?xml version="1.0" encoding="UTF-8" standalone="no"?>
<svg
   xmlns:osb="http://www.openswatchbook.org/uri/2009/osb"
   xmlns:dc="http://purl.org/dc/elements/1.1/"
   xmlns:cc="http://creativecommons.org/ns#"
   xmlns:rdf="http://www.w3.org/1999/02/22-rdf-syntax-ns#"
   xmlns:svg="http://www.w3.org/2000/svg"
   xmlns="http://www.w3.org/2000/svg"
   version="1.1"
   id="Layer_1"
   x="0px"
   y="0px"
   viewBox="0 0 215 230"
   enable-background="new 0 0 1200 1200"
   xml:space="preserve"
   width="215"
   height="230"><metadata
   id="metadata90"><rdf:RDF><cc:Work
       rdf:about=""><dc:format>image/svg+xml</dc:format><dc:type
         rdf:resource="http://purl.org/dc/dcmitype/StillImage" /><dc:title></dc:title></cc:Work></rdf:RDF></metadata><defs
   id="defs88"><linearGradient
     id="linearGradient2983"
     osb:paint="solid"><stop
       style="stop-color:#ffff1c;stop-opacity:1;"
       offset="0"
       id="stop2981" /></linearGradient></defs>

<g
   id="layer3"
   style="display:inline"
   transform="matrix(0.19628027,0,0,0.19628027,-6.7459925,-1.2686205)"><path
     style="opacity:0.919342;mix-blend-mode:normal;fill:#ffff64;fill-opacity:1;fill-rule:nonzero;stroke-width:0"
     id="path176"
     d="M 1011.1539,648.47046 A 411.22025,423.82901 0 0 1 612.03078,1072.116 411.22025,423.82901 0 0 1 189.42515,673.39576 411.22025,423.82901 0 0 1 563.68415,226.29137 411.22025,423.82901 0 0 1 1008.3094,598.70614" /></g><g
   id="layer2"
   style="display:inline"
   transform="matrix(0.19628027,0,0,0.19628027,-6.7459925,-1.2686205)"><g
     id="g83"
     transform="matrix(0.99695624,0,0,1,-28.927624,-22.205012)"
     style="fill:#006eaf;fill-opacity:1">
	<path
   fill="#1c1a1a"
   d="m 828.03696,1016.889 c -3.18,-19.799 -3.997,-39.991 -7.456,-59.73 -6.924,-39.502 -14.539,-78.895 -22.642,-118.174 -4.974,-24.103 -0.944,-42.786 21.117,-58.045 12.95,-8.957 22.915,-23.292 31.869,-36.772 31.242,-47.035 62.492,-94.122 91.825,-142.356 44.207,-72.696 34.933,-168.829 -19.657,-234.467 -5.678,-6.829 -10.914,-22.34 -7.38,-26.966 10.77,-14.095 24.042,-30.405 39.772,-35.743 27.348,-9.281 43.384,-26.777 53.53804,-49.141 -2.142,1.624 -4.672,2.832 -8.13,3.981 -8.08104,2.685 -17.38904,1.846 -17.38904,1.846 -10.539,-2.184 -10.554,-4.287 -14.663,-5.452 -1.925,-0.546 -3.766,-4.222 -3.223,-5.952 0.577,-1.83 3.348,-1.652 5.267,-1.064 6.998,2.146 9.012,4.946 17.465,5.274 0,0 4.518,0.032 9.2,-2.308 4.62704,-2.313 14.03104,-6.75 11.23404,-17.464 -0.051,-0.168 -0.098,-0.34 -0.146,-0.51 -0.178,-0.616 -0.373,-1.239 -0.624,-1.889 -0.136,-0.355 -0.212,-0.718 -0.259,-1.081 -1.629,-6 -5.431,-7.85 -10.76704,-13.277 -2.779,-2.828 -5.079,-10.995 3.11904,-14.884 4.351,-2.064 6.808,-4.273 12.674,-3.899 -5.291,-7.409 -13.94604,-13.337 -25.82104,-18.416 -12.822,-5.484 -26.602,-11.427 -36.368,-20.866 -34.375,-33.22 -71.944,-51.5 -120.974,-37.415 -16.498,4.739 -28.268,-3.529 -34.092,-20.598 -4.054,-11.881 -8.662,-24.283 -16.141,-34.071 -5.233,-6.848 -13.405,-11.449 -21.061,-16.446 -2.775,-1.811 -6.473,-1.113 -8.344,1.621 -5.951,8.697 -13.321,17.286 -14.01,26.382 -1.312,17.317 3.753,35.113 6.081,52.711 1.681,12.701 3.299,25.411 4.942,38.117 -2.45,0.277 -4.901,0.553 -7.352,0.831 -4.116,-18.485 -8.229,-36.971 -13.391,-60.162 -26.687,70.968 -41.963,137.508 -41.012,207.878 0.455,33.647 -11.853,65.978 -36.519,90.403 -47.384,46.92 -103.178,81.694 -161.675,113.691 -62.821,34.362 -134.133,58.231 -175.144,123.969 -0.119,0.192 -1.342,-0.304 -7.426,-1.803 12.502,-18.465 24.005,-35.46 38.938,-57.517 -42.399,-55.594 -86.627,-113.261 -130.425,-171.253 -10.222,-13.535 -21.262,-27.171 -28.01,-42.485 -24.679,-56.025 -7.406,-97.666 48.102,-120.346 2.753,-1.124 6.456,-1.493 8.069,-3.523 4.312,-5.42 10.782,-11.634 10.631,-17.382 -0.149,-5.723 -6.569,-15.231 -11.523,-16.148 -15.619,-2.89 -33.286,-7.117 -47.567,-2.61 -53.939,17.022 -80.617,56.113 -83.548,113.107 -3.146,61.163 24.459,109.056 64.108,151.602 44.618,47.875 79.744,101.465 103.624,162.512 11.279,28.832 16.599,57.536 13.018,89.088 -2.709,23.855 -0.913,49.171 4.037,72.754 11.421,54.405 14.149,107.488 -10.031,159.238 -15.728,33.661 -15.94,68.196 -7.277,103.491 3.171,12.916 5.576,26.023 8.131,39.075 6.32,32.3 14.979,39.261 49.302,39.38 11.136,0.038 22.277,-0.624 33.407,-1.167 15.796,-0.771 24.549,-11.057 21.749,-24.817 -2.196,-10.793 -10.071,-22.673 -18.953,-29.427 -22.789,-17.321 -25.91,-49.637 -3.729,-66.726 53.325,-41.078 102.9,-85.438 135.74,-145.692 12.491,-22.916 26.603,-44.948 39.977,-67.382 2.856,6.507 3.065,12.456 0.451,16.64 -25.15,40.24 -50.761,80.19 -76.265,120.206 -14.191,22.264 -29.233,44.036 -42.382,66.897 -9.536,16.577 -4.923,30.666 11.135,42.294 62.556,45.305 129.379,78.659 209.172,74.068 10.862,-0.625 21.243,-9.652 31.847,-14.79 -5.532,-10.469 -9.448,-22.399 -17.153,-30.9 -5.279,-5.828 -16.056,-10.091 -23.98,-9.523 -35.613,2.552 -59.331,-24.781 -90.065,-34.054 -3.359,-1.013 -5.442,-6.264 -9.606,-11.382 11.557,-9.717 21.713,-19.363 32.95,-27.517 52.578,-38.144 80.758,-96.434 120.066,-145.492 3.361,-4.193 0.908,-14.165 -0.692,-21.021 -7.56,-32.404 -15.419,-64.748 -23.898,-96.923 -3.118,-11.829 -6.856,-23.505 -11.56,-34.797 -10.319,-24.767 -15.44,-49.604 -4.158,-74.85 3.561,21.404 6.125,43.038 10.979,64.145 4.608,20.039 12.145,39.387 17.419,59.297 5.113,19.304 8.297,39.124 13.53,58.391 16.525,60.832 35.068,121.156 49.975,182.372 9.994,41.037 13.979,83.514 23.208,124.775 2.542,11.362 12.369,26.354 22.201,29.632 16.056,5.352 35.141,4.682 52.436,2.5 25.146,-3.17 37.36,-32.561 18.963,-49.922 -24.844,-23.44 -24.165,-52.833 -28.78,-81.571 z"
   id="path77"
   style="fill:#006eaf;fill-opacity:1" />
	<path
   fill="#1c1a1a"
   d="m 1130.218,731.556 c -19.373,-54.946 -47.059,-105.226 -103.782,-130.015 -29.579,-12.926 -61.209,-21.15 -92.568,-31.719 -23.705,39.237 -45.935,75.961 -68.054,112.751 -2.205,3.669 -3.749,7.737 -7.196,14.969 13.716,-2.967 24.259,-6.03 35.018,-7.428 32.263,-4.192 65.082,-12.757 96.765,-9.794 21.707,2.03 43.759,18.043 62.13,32.339 13.964,10.868 20.647,30.753 33.936,42.96 7.462,6.852 25.11,11.775 32.087,7.543 7.802,-4.733 14.726,-22.926 11.664,-31.606 z"
   id="path79"
   style="fill:#006eaf;fill-opacity:1" />
	<path
   fill="#1c1a1a"
   d="m 793.033,111.582 c -0.456,-7.322 -0.37,-13.1 -1.281,-18.716 -1.061,-6.519 -1.771,-13.582 -4.888,-19.145 -3.235,-5.773 -9.166,-10.036 -13.919,-14.959 -4.509,5.411 -10.984,10.14 -13.145,16.366 -5.717,16.46 11.888,36.778 33.233,36.454 z"
   id="path81"
   style="fill:#006eaf;fill-opacity:1" />
</g></g></svg>
