<?xml version="1.0" standalone="no"?>
<!DOCTYPE svg PUBLIC "-//W3C//DTD SVG 20010904//EN"
 "http://www.w3.org/TR/2001/REC-SVG-20010904/DTD/svg10.dtd">
<svg version="1.0" xmlns="http://www.w3.org/2000/svg"
 width="310.000000pt" height="310.000000pt" viewBox="0 0 310.000000 310.000000"
 preserveAspectRatio="xMidYMid meet">
<metadata>
Created by potrace 1.11, written by Peter Selinger 2001-2013
</metadata>
<g transform="translate(0.000000,310.000000) scale(0.100000,-0.100000)"
fill="#000000" stroke="none">
<path d="M0 1550 l0 -1550 1550 0 1550 0 0 1550 0 1550 -1550 0 -1550 0 0
-1550z m1696 957 c4 -4 3 -71 -3 -150 -9 -129 -13 -149 -39 -196 -59 -110
-267 -261 -565 -411 -221 -111 -301 -162 -369 -237 -28 -30 -53 -53 -56 -50
-3 2 15 34 41 70 25 36 45 70 45 75 0 6 -44 67 -99 135 -113 142 -123 159
-114 184 15 43 93 149 173 236 165 182 452 326 695 351 62 6 283 1 291 -7z
m782 -461 c94 -132 174 -317 189 -440 6 -45 5 -49 -13 -43 -43 13 -209 70
-212 72 -2 2 4 29 14 61 26 91 22 222 -10 314 -15 41 -29 83 -33 93 -12 37 14
14 65 -57z m-2010 -376 c26 -28 107 -194 126 -259 11 -37 16 -95 16 -180 0
-69 7 -162 15 -206 20 -109 20 -269 0 -285 -12 -10 -20 -2 -51 46 -49 77 -106
204 -128 284 -9 36 -22 79 -27 96 -16 52 -22 282 -9 369 24 176 23 173 58 135z
m1132 -214 c0 -14 14 -78 31 -143 18 -65 44 -165 59 -223 15 -58 53 -193 85
-300 58 -202 105 -402 105 -455 0 -27 -5 -32 -42 -43 -24 -7 -72 -16 -108 -21
-61 -8 -67 -7 -90 14 -31 29 -71 45 -114 45 -36 0 -236 93 -236 109 0 6 21 27
47 48 103 83 169 154 262 278 53 72 100 135 104 142 9 15 -50 256 -93 379 -30
87 -41 194 -20 194 6 0 10 -11 10 -24z m1010 -121 c84 -43 88 -65 43 -235 -37
-136 -112 -289 -193 -395 -95 -124 -332 -318 -356 -293 -7 7 -18 56 -24 108
-7 52 -27 173 -46 268 -48 243 -48 242 38 321 27 25 77 86 111 136 l63 90 69
11 c39 6 110 12 158 13 75 1 95 -3 137 -24z m-1300 -335 c0 -5 -76 -125 -170
-266 -93 -141 -170 -264 -170 -273 0 -9 -4 -22 -9 -30 -8 -12 -16 -10 -50 13
-23 16 -41 34 -41 41 0 7 37 45 83 84 45 39 103 95 128 124 45 52 64 79 163
240 43 70 66 93 66 67z"/>
</g>
</svg>
